<svg id="blurent-logo" xmlns="http://www.w3.org/2000/svg" xmlns:xlink="http://www.w3.org/1999/xlink" width="148.847" height="56" viewBox="0 0 148.847 56">
  <defs>
    <clipPath id="clip-path">
      <rect id="Rectangle_56" data-name="Rectangle 56" width="148.847" height="56" fill="none"/>
    </clipPath>
  </defs>
  <g id="blurent-logo-2" data-name="blurent-logo" transform="translate(74.424 28)">
    <g id="Group_66" data-name="Group 66" transform="translate(-74.424 -28)" clip-path="url(#clip-path)">
      <path id="Path_170" data-name="Path 170" d="M0,33.1H7.668c6.22,0,9.705,2.949,9.705,6.542a5.362,5.362,0,0,1-3.217,4.987v.214a5.9,5.9,0,0,1,4.611,5.791c0,3.592-3.485,6.542-9.705,6.542H0Zm5.791,4.665v4.987H8.418c2.145,0,3.217-1.019,3.217-2.681s-1.18-2.359-3.592-2.359Zm0,9.276V52.4H9.437c2.2,0,3.592-.8,3.592-2.413a2.95,2.95,0,0,0-3.217-2.949Z" transform="translate(0 -15.352)" fill="#fff"/>
      <path id="Path_171" data-name="Path 171" d="M41.3,33.1h5.791V52.457h8.9v4.665H41.3Z" transform="translate(-19.155 -15.352)" fill="#fff"/>
      <path id="Path_172" data-name="Path 172" d="M94.158,48.542c0,5.362-4.5,8.9-10.456,8.9s-10.4-3.485-10.4-8.9V33.1h5.791V48.542c0,2.9,2.091,4.236,4.611,4.236s4.665-1.394,4.665-4.236V33.1h5.791Z" transform="translate(-33.997 -15.352)" fill="#fff"/>
      <path id="Path_173" data-name="Path 173" d="M120.1,33.1h8.418c6.22,0,9.705,3.485,9.705,7.614a7.024,7.024,0,0,1-4.075,6.434l5.469,9.973H133.29l-4.719-8.794h-2.735v8.794H120.1Zm5.791,4.665v5.9h2.627c2.681,0,3.968-.858,3.968-2.949s-1.287-2.949-3.968-2.949Z" transform="translate(-55.703 -15.352)" fill="#fff"/>
      <path id="Path_174" data-name="Path 174" d="M161.5,57.121V33.1h15.442v4.665h-9.651v4.772h9.115V47.2h-9.115v5.255h9.651v4.665Z" transform="translate(-74.905 -15.352)" fill="#fff"/>
      <path id="Path_175" data-name="Path 175" d="M204.046,44.682l-1.394-2.306h-.214V57.121H196.7V33.1h4.987l9.33,12.6,1.609,2.574.214-.107V33.1h5.791V57.121h-5.04Z" transform="translate(-91.231 -15.352)" fill="#fff"/>
      <path id="Path_176" data-name="Path 176" d="M255.032,37.765V57.121H249.3V37.765h-6.6V33.1h18.713v4.665Z" transform="translate(-112.566 -15.352)" fill="#fff"/>
      <path id="Path_177" data-name="Path 177" d="M214.057,55.976a2.949,2.949,0,0,1-2.466-1.287L177.757,4.608a2.952,2.952,0,1,1,4.879-3.324l33.887,50.08a2.949,2.949,0,0,1-2.466,4.611" transform="translate(-82.207 0.003)" fill="#1df69f"/>
    </g>
  </g>
</svg>
