<svg xmlns="http://www.w3.org/2000/svg" width="24" height="24" viewBox="0 0 24 24">
  <path id="linnuke" d="M294.744,430.1c-.507.333-.894.872-.715,1a25.9,25.9,0,0,1,4.171,3.874c1.43,1.693,2.979,3.72,3.546,4.438a1.859,1.859,0,0,0,2.384-.077c.566-.487,2.8-6.363,4.529-10.108,4.41-9.7,9.385-12.93,9.326-12.982a3.362,3.362,0,0,0-2.95-.18c-5.214,3.848-11.2,16.625-12.305,21.063-1.043-1.95-5.482-7.312-6.644-7.363A2.881,2.881,0,0,0,294.744,430.1Z" transform="translate(-293.985 -415.81)" fill="#1df69f"/>
</svg>
